# xmcd
#
# Track frame offsets:
#	150
#	13134
#	23225
#	40441
#	55930
#	69067
#	83013
#	98624
#	112390
#	128962
#	142545
#	153737
#	166990
#	179974
#	190065
#	207281
#	222770
#	235907
#	249853
#	263619
#	280191
#	293774
#
# Disc length: 4063 seconds
#
# Revision: 0
# Processed by: cddbd v1.5.2PL0 Copyright (c) Steve Scherf et al.
# Submitted via: audiograbber 1.83.01
#
DISCID=380fdd16
DTITLE=paquita - vol 4
DYEAR=1900
DGENRE=karaoke
TTITLE0=chiquito
TTITLE1=las rodilleras
TTITLE2=nadie perdona el exito
TTITLE3=tres veces te engne
TTITLE4=perdida
TTITLE5=hipocrita
TTITLE6=derecho a la vida
TTITLE7=lampara sin luz
TTITLE8=anillo de compromiso
TTITLE9=la chancla
TTITLE10=le falta un clavo ami cruz
TTITLE11=que se cubra mi tumba
TTITLE12=chiquito+1
TTITLE13=las rodilleras+1
TTITLE14=nadieperdona le exito+1
TTITLE15=tres veces te engane+1
TTITLE16=PERDIDA+1
TTITLE17=hipocrita+1
TTITLE18=lamapara sin luz+1
TTITLE19=anillo de compromiso+1
TTITLE20=la chancla+1
TTITLE21=le falta un clavo ami cruz+
EXTD=
EXTT0=
EXTT1=
EXTT2=
EXTT3=
EXTT4=
EXTT5=
EXTT6=
EXTT7=
EXTT8=
EXTT9=
EXTT10=
EXTT11=
EXTT12=
EXTT13=
EXTT14=
EXTT15=
EXTT16=
EXTT17=
EXTT18=
EXTT19=
EXTT20=
EXTT21=
PLAYORDER=
